{"title":"Red Hill-AC3-XviD-BRRip[Eng]2010","uid":5973815,"size":1359425832,"categoryP":"video","categoryS":"movies","magnet":"?xt=urn:btih:9c01b1a518cafa5b3816611df7443ade70452450&amp;dn=Red+Hill-AC3-XviD-BRRip%5BEng%5D2010&amp;tr=udp%3A%2F%2Ftracker.openbittorrent.com%3A80&amp;tr=udp%3A%2F%2Fopen.demonii.com%3A1337&amp;tr=udp%3A%2F%2Ftracker.coppersurfer.tk%3A6969&amp;tr=udp%3A%2F%2Fexodus.desync.com%3A6969","seeders":1,"leechers":0,"uploader":"FatFreddy31","files":-1,"time":1290386411,"description":"A young police officer must survive his first day's duty in a small country town. \n &lt;a href=&quot;\nhttp://www.imdb.com/title/tt1530983/&quot; rel=&quot;nofollow&quot; target=&quot;_NEW&quot;&gt;\nhttp://www.imdb.com/title/tt1530983/&lt;/a&gt;\n\nSubtitles (srt) : Dutch.\n\nCover included.\n\nRed Hill vertelt het verhaal van Shane Cooper (Ryan Kwanten), een jonge politieagent, die terugkeert naar het kleine stadje Red Hill om samen met zijn zwangere vrouw een gezin te stichten. Het nieuws van een gevangenisontsnapping zorgt voor paniek bij de lokale wetshandhavers. Jimmy Conway, een tot levenslang veroordeelde moordenaar, keert terug naar het geÃƒÂ¯soleerde stadje om wraak te nemen. Shane's eerste dienstdag loopt al snel uit op een nachtmerrie.\n &lt;a href=&quot;\nhttp://www.moviemeter.nl/film/63881&quot; rel=&quot;nofollow&quot; target=&quot;_NEW&quot;&gt;\nhttp://www.moviemeter.nl/film/63881&lt;/a&gt;\n\nOndertitels (srt) : Nederlands.\n\nHoesje bijgevoegd.\n\nGeneral\nComplete name                    : Red Hill-AC3-XviD-BRRip[Eng]2010\\Red Hill-AC3-XviD-BRRip[Eng]2010.avi\nFormat                           : AVI\nFormat/Info                      : Audio Video Interleave\nFile size                        : 1.27 GiB\nDuration                         : 1h 37mn\nOverall bit rate                 : 1 865 Kbps\nWriting application              : VirtualDubMod 1.5.4.1 (build 2178/release)\nWriting library                  : VirtualDubMod build 2178/release\nSource                           : Red.Hill.2010.720p.BluRay.x264-REFiNED \n\nVideo\nID                               : 0\nFormat                           : MPEG-4 Visual\nFormat profile                   : Simple@L3\nFormat settings, BVOP            : No\nFormat settings, QPel            : No\nFormat settings, GMC             : No warppoints\nFormat settings, Matrix          : Default (H.263)\nCodec ID                         : XVID\nCodec ID/Hint                    : XviD\nDuration                         : 1h 37mn\nBit rate                         : 1 408 Kbps\nWidth                            : 720 pixels\nHeight                           : 304 pixels\nDisplay aspect ratio             : 2.35:1\nFrame rate                       : 23.976 fps\nResolution                       : 8 bits\nColorimetry                      : 4:2:0\nScan type                        : Progressive\nBits/(Pixel*Frame)               : 0.268\nStream size                      : 978 MiB (75%)\nWriting library                  : XviD 1.1.2 (UTC 2006-11-01)\n\nAudio\nID                               : 1\nFormat                           : AC-3\nFormat/Info                      : Audio Coding 3\nCodec ID                         : 2000\nDuration                         : 1h 37mn\nBit rate mode                    : Constant\nBit rate                         : 448 Kbps\nChannel(s)                       : 6 channels\nChannel positions                : Front: L C R, Surround: L R, LFE\nSampling rate                    : 48.0 KHz\nStream size                      : 311 MiB (24%)\nAlignment                        : Split accross interleaves\nInterleave, duration             : 42 ms (1.00 video frame)\nInterleave, preload duration     : 500 ms\n\nThanks to Simply ReleaseS for the Dutch subs... Nice job peeps!","torrent":{"xt":"urn:btih:9c01b1a518cafa5b3816611df7443ade70452450","amp;dn":"Red+Hill-AC3-XviD-BRRip%5BEng%5D2010","amp;tr":["udp%3A%2F%2Ftracker.openbittorrent.com%3A80","udp%3A%2F%2Fopen.demonii.com%3A1337","udp%3A%2F%2Ftracker.coppersurfer.tk%3A6969","udp%3A%2F%2Fexodus.desync.com%3A6969"],"infoHash":"9c01b1a518cafa5b3816611df7443ade70452450","infoHashBuffer":{"type":"Buffer","data":[156,1,177,165,24,202,250,91,56,22,97,29,247,68,58,222,112,69,36,80]},"announce":[],"urlList":[]}}